<svg aria-hidden="true" style="position:absolute;width:0;height:0;overflow:hidden" xmlns="http://www.w3.org/2000/svg">
  <defs>
    <symbol id="alarm-clock" viewBox="0 0 32 32">
      <path d="M18 2.82V2a2 2 0 1 0-4 0v.82C6.809 3.819 1.333 9.926 1.333 17.312c0 3.38 1.147 6.493 3.073 8.97l-.025-.033a4.698 4.698 0 0 0-1.716 3.632l.002.125V30a2 2 0 1 0 4 0 .856.856 0 0 1 .601-.905l.006-.002c2.401 1.813 5.435 2.904 8.725 2.904s6.324-1.091 8.761-2.931l-.037.027a.857.857 0 0 1 .61.91v-.004a2 2 0 1 0 4 0l.002-.119a4.695 4.695 0 0 0-1.708-3.626l-.008-.006a14.529 14.529 0 0 0 3.048-8.937c0-7.386-5.476-13.494-12.59-14.484L18 2.818zM5.333 17.333c0-5.891 4.776-10.667 10.667-10.667s10.667 4.776 10.667 10.667S21.891 28 16 28c-5.888-.007-10.66-4.778-10.667-10.666v-.001z"/>
      <path d="M26 0a2 2 0 1 0 0 4 1.815 1.815 0 0 1 1.945 2.009l.001-.008a2 2 0 1 0 4 0A5.777 5.777 0 0 0 25.992.002h.009zM4.055 6a1.815 1.815 0 0 1 1.952-2h-.006a2 2 0 1 0 0-4A5.777 5.777 0 0 0 .057 6.011V6a2 2 0 1 0 4 0zM18.04 16.505v-5.172a2 2 0 1 0-4 0v5.724c0 .736.299 1.403.781 1.885l2.391 2.391a2 2 0 0 0 2.827-2.829l.001.001z"/>
    </symbol>
    <symbol id="book" viewBox="0 0 32 32">
      <path d="M30.563 2.267a3.96 3.96 0 0 0-3.302-.86l.025-.004-8.24 1.497a5.34 5.34 0 0 0-3.041 1.709L16 4.615a5.322 5.322 0 0 0-3.012-1.714l-.033-.005-8.24-1.497A4 4 0 0 0 0 5.334v22.445l16 2.911 16-2.911V5.334a3.98 3.98 0 0 0-1.431-3.061l-.006-.005zM14.667 27.733l-12-2.179V5.333a1.333 1.333 0 0 1 1.58-1.309l-.008-.001 8.239 1.497a2.671 2.671 0 0 1 2.189 2.624zm14.666-2.181-12 2.181V8.144c0-1.304.936-2.389 2.173-2.621l.017-.003 8.239-1.497a1.332 1.332 0 0 1 1.572 1.31z"/>
    </symbol>
    <symbol id="browser" viewBox="0 0 32 32">
      <path d="M28 1.333H4a4 4 0 0 0-4 4v25.333h32V5.333a4 4 0 0 0-4-4zM4 4h24c.736 0 1.333.597 1.333 1.333v4H2.666v-4C2.666 4.597 3.263 4 3.999 4zM2.667 28V12h26.667v16zm4-12h18.667v2.667H6.667zm0 5.333H20V24H6.667zM4 6.667A1.333 1.333 0 1 1 5.333 8 1.333 1.333 0 0 1 4 6.667zm4 0A1.333 1.333 0 1 1 9.333 8 1.333 1.333 0 0 1 8 6.667zm4 0A1.333 1.333 0 1 1 13.333 8 1.333 1.333 0 0 1 12 6.667z"/>
    </symbol>
    <symbol id="facebook" viewBox="0 0 32 32">
      <path d="M8.434 17.043h3.508v14.441c0 .285.231.516.516.516h5.947a.516.516 0 0 0 .516-.516V17.111h4.032a.517.517 0 0 0 .513-.457l.612-5.316a.513.513 0 0 0-.512-.575h-4.645V7.43c0-1.005.541-1.514 1.608-1.514h3.037a.516.516 0 0 0 .516-.516V.52a.516.516 0 0 0-.516-.516h-4.185C19.352.003 19.286 0 19.189 0c-.726 0-3.25.143-5.244 1.977-2.209 2.033-1.902 4.467-1.829 4.889v3.897H8.434a.516.516 0 0 0-.516.516v5.248c0 .285.231.516.516.516z"/>
    </symbol>
    <symbol id="laptop" viewBox="0 0 32 32">
      <path d="m11.988 24-1.128-1.333H0V24a4 4 0 0 0 4 4h24a4 4 0 0 0 4-4v-1.333H21.147L20.018 24zm.121-4 1.129 1.333h5.543L19.909 20h9.424V4H2.666v16h9.443z"/>
    </symbol>
    <symbol id="linkedin" viewBox="0 0 32 32">
      <path d="M7.449 10.295H1.025a.516.516 0 0 0-.516.516v20.638c0 .285.231.516.516.516h6.424a.516.516 0 0 0 .516-.516V10.811a.516.516 0 0 0-.516-.516zM4.239.035A4.242 4.242 0 0 0 0 4.269a4.242 4.242 0 0 0 4.239 4.236c2.336 0 4.236-1.9 4.236-4.236S6.575.035 4.239.035zm19.55 9.747c-2.58 0-4.487 1.109-5.644 2.369v-1.34a.516.516 0 0 0-.516-.516h-6.152a.516.516 0 0 0-.516.516v20.638c0 .285.231.516.516.516h6.41a.516.516 0 0 0 .516-.516V21.238c0-3.441.935-4.781 3.333-4.781 2.612 0 2.82 2.149 2.82 4.958v10.034c0 .285.231.516.516.516h6.412a.516.516 0 0 0 .516-.516v-11.32c0-5.116-.976-10.347-8.211-10.347z"/>
    </symbol>
    <symbol id="pinterest" viewBox="0 0 32 32">
      <path d="M25.314 3.279C23.111 1.164 20.063 0 16.731 0 11.641 0 8.51 2.087 6.78 3.837c-2.132 2.157-3.355 5.021-3.355 7.858 0 3.562 1.49 6.296 3.985 7.313.168.069.336.103.501.103.526 0 .943-.344 1.088-.897.084-.317.279-1.099.364-1.438.182-.67.035-.993-.361-1.46-.722-.854-1.058-1.864-1.058-3.178 0-3.903 2.906-8.051 8.293-8.051 4.274 0 6.929 2.429 6.929 6.34 0 2.468-.532 4.753-1.497 6.435-.671 1.169-1.851 2.562-3.662 2.562-.783 0-1.487-.322-1.93-.883-.419-.53-.558-1.215-.389-1.929.191-.806.45-1.648.702-2.461.459-1.485.892-2.888.892-4.008 0-1.915-1.177-3.201-2.929-3.201-2.226 0-3.97 2.261-3.97 5.147 0 1.415.376 2.474.546 2.881-.28 1.188-1.947 8.252-2.263 9.584-.183.778-1.284 6.919.539 7.409 2.048.55 3.878-5.431 4.065-6.107.151-.55.679-2.628 1.003-3.906.989.952 2.58 1.596 4.129 1.596 2.92 0 5.545-1.314 7.394-3.699 1.792-2.314 2.78-5.539 2.78-9.08 0-2.769-1.189-5.498-3.262-7.488z"/>
    </symbol>
    <symbol id="pulse" viewBox="0 0 32 32">
      <path d="M32 25.333v-20a4 4 0 0 0-4-4H4a4 4 0 0 0-4 4v20h14.667V28H8v2.667h16V28h-6.667v-2.667zm-29.333-20C2.667 4.597 3.264 4 4 4h24c.736 0 1.333.597 1.333 1.333v17.333H2.666zM19.953 12h6.713v2.667h-5.287l-3.545 5.317-4-8-1.788 2.683H5.333V12h5.287l3.545-5.317 4 8z"/>
    </symbol>
    <symbol id="twitter" viewBox="0 0 32 32">
      <path d="M31.275 5.924c-.503.223-1.02.411-1.548.564a6.842 6.842 0 0 0 1.393-2.45.516.516 0 0 0-.755-.601 12.21 12.21 0 0 1-3.6 1.423 6.903 6.903 0 0 0-4.808-1.96c-3.788 0-6.87 3.082-6.87 6.869 0 .298.019.595.056.888A17.59 17.59 0 0 1 3.072 4.253a.515.515 0 0 0-.846.067 6.862 6.862 0 0 0-.93 3.454c0 1.655.591 3.226 1.635 4.453a5.768 5.768 0 0 1-.919-.411.517.517 0 0 0-.766.439l-.001.092a6.892 6.892 0 0 0 3.363 5.907 5.83 5.83 0 0 1-.523-.076.516.516 0 0 0-.588.665 6.867 6.867 0 0 0 5.032 4.604 12.151 12.151 0 0 1-6.496 1.854c-.487 0-.976-.029-1.455-.085a.516.516 0 0 0-.339.946 18.525 18.525 0 0 0 10.018 2.936c6.994 0 11.369-3.298 13.808-6.065 3.041-3.45 4.785-8.016 4.785-12.528 0-.188-.003-.379-.009-.569a13.345 13.345 0 0 0 3.073-3.255.515.515 0 0 0-.638-.759z"/>
    </symbol>
    <symbol id="home" viewBox="0 0 32 32">
      <path d="m32 19-6-6V4h-4v5l-6-6L0 19v1h4v10h10v-6h4v6h10V20h4z"/>
    </symbol>
    <symbol id="search" viewBox="0 0 32 32">
      <path d="M31.008 27.231l-7.58-6.447c-0.784-0.705-1.622-1.029-2.299-0.998 1.789-2.096 2.87-4.815 2.87-7.787 0-6.627-5.373-12-12-12s-12 5.373-12 12 5.373 12 12 12c2.972 0 5.691-1.081 7.787-2.87-0.031 0.677 0.293 1.515 0.998 2.299l6.447 7.58c1.104 1.226 2.907 1.33 4.007 0.23s0.997-2.903-0.23-4.007zM12 20c-4.418 0-8-3.582-8-8s3.582-8 8-8 8 3.582 8 8-3.582 8-8 8z"></path>
    </symbol>
    <symbol id="cart" viewBox="0 0 32 32">
      <path d="M12 29c0 1.657-1.343 3-3 3s-3-1.343-3-3c0-1.657 1.343-3 3-3s3 1.343 3 3z"></path>
      <path d="M32 29c0 1.657-1.343 3-3 3s-3-1.343-3-3c0-1.657 1.343-3 3-3s3 1.343 3 3z"></path>
      <path d="M32 16v-12h-24c0-1.105-0.895-2-2-2h-6v2h4l1.502 12.877c-0.915 0.733-1.502 1.859-1.502 3.123 0 2.209 1.791 4 4 4h24v-2h-24c-1.105 0-2-0.895-2-2 0-0.007 0-0.014 0-0.020l26-3.98z"></path>
    </symbol>
  <symbol id="instagram" viewBox="0 0 32 32">
    <path d="M16 2.881c4.275 0 4.781 0.019 6.462 0.094 1.563 0.069 2.406 0.331 2.969 0.55 0.744 0.288 1.281 0.638 1.837 1.194 0.563 0.563 0.906 1.094 1.2 1.838 0.219 0.563 0.481 1.412 0.55 2.969 0.075 1.688 0.094 2.194 0.094 6.463s-0.019 4.781-0.094 6.463c-0.069 1.563-0.331 2.406-0.55 2.969-0.288 0.744-0.637 1.281-1.194 1.837-0.563 0.563-1.094 0.906-1.837 1.2-0.563 0.219-1.413 0.481-2.969 0.55-1.688 0.075-2.194 0.094-6.463 0.094s-4.781-0.019-6.463-0.094c-1.563-0.069-2.406-0.331-2.969-0.55-0.744-0.288-1.281-0.637-1.838-1.194-0.563-0.563-0.906-1.094-1.2-1.837-0.219-0.563-0.481-1.413-0.55-2.969-0.075-1.688-0.094-2.194-0.094-6.463s0.019-4.781 0.094-6.463c0.069-1.563 0.331-2.406 0.55-2.969 0.288-0.744 0.638-1.281 1.194-1.838 0.563-0.563 1.094-0.906 1.838-1.2 0.563-0.219 1.412-0.481 2.969-0.55 1.681-0.075 2.188-0.094 6.463-0.094zM16 0c-4.344 0-4.887 0.019-6.594 0.094-1.7 0.075-2.869 0.35-3.881 0.744-1.056 0.412-1.95 0.956-2.837 1.85-0.894 0.888-1.438 1.781-1.85 2.831-0.394 1.019-0.669 2.181-0.744 3.881-0.075 1.713-0.094 2.256-0.094 6.6s0.019 4.887 0.094 6.594c0.075 1.7 0.35 2.869 0.744 3.881 0.413 1.056 0.956 1.95 1.85 2.837 0.887 0.887 1.781 1.438 2.831 1.844 1.019 0.394 2.181 0.669 3.881 0.744 1.706 0.075 2.25 0.094 6.594 0.094s4.888-0.019 6.594-0.094c1.7-0.075 2.869-0.35 3.881-0.744 1.050-0.406 1.944-0.956 2.831-1.844s1.438-1.781 1.844-2.831c0.394-1.019 0.669-2.181 0.744-3.881 0.075-1.706 0.094-2.25 0.094-6.594s-0.019-4.887-0.094-6.594c-0.075-1.7-0.35-2.869-0.744-3.881-0.394-1.063-0.938-1.956-1.831-2.844-0.887-0.887-1.781-1.438-2.831-1.844-1.019-0.394-2.181-0.669-3.881-0.744-1.712-0.081-2.256-0.1-6.6-0.1v0z"></path>
    <path d="M16 7.781c-4.537 0-8.219 3.681-8.219 8.219s3.681 8.219 8.219 8.219 8.219-3.681 8.219-8.219c0-4.537-3.681-8.219-8.219-8.219zM16 21.331c-2.944 0-5.331-2.387-5.331-5.331s2.387-5.331 5.331-5.331c2.944 0 5.331 2.387 5.331 5.331s-2.387 5.331-5.331 5.331z"></path>
    <path d="M26.462 7.456c0 1.060-0.859 1.919-1.919 1.919s-1.919-0.859-1.919-1.919c0-1.060 0.859-1.919 1.919-1.919s1.919 0.859 1.919 1.919z"></path>
  </symbol>
  <symbol id="menu_24px" viewBox="0 0 48 32">
    <path d="M0 5.333V0h48v5.333H0zm0 13.334h48v-5.333H0v5.333zM0 32h48v-5.333H0V32z"/>
  </symbol>
  </defs>
</svg>

